<?xml version="1.0" encoding="UTF-8"?>
<svg width="1024px" height="1024px" viewBox="0 0 1024 1024" version="1.1" xmlns="http://www.w3.org/2000/svg" xmlns:xlink="http://www.w3.org/1999/xlink">
    <!-- Generator: Sketch 55.2 (78181) - https://sketchapp.com -->
    <title>appicon</title>
    <desc>Created with Sketch.</desc>
    <g id="appicon" stroke="none" stroke-width="1" fill="none" fill-rule="evenodd">
        <g id="book" transform="translate(150.000000, 70.000000)" fill="#292F36" fill-rule="nonzero">
            <path d="M80.4444444,743 C80.4444444,709.862915 107.456598,683 140.777778,683 L683.777778,683 C705.991898,683 724,665.09139 724,643 C724,620.90861 705.991898,603 683.777778,603 L140.777778,603 C63.028358,603 0,665.680135 0,743 C0,765.09139 18.0081023,783 40.2222222,783 C62.4363422,783 80.4444444,765.09139 80.4444444,743 Z" id="Path"></path>
            <path d="M140.777778,0 L683.777778,0 C705.991898,0 724,17.9900128 724,40.1818182 L724,843.818182 C724,866.009987 705.991898,884 683.777778,884 L140.777778,884 C63.028358,884 0,821.034955 0,743.363636 L0,140.636364 C0,62.9650447 63.028358,0 140.777778,0 Z M644,81 L141.321429,81 C108.006823,81 81,107.974844 81,141.25 L81,743.75 C81,777.025156 108.006823,804 141.321429,804 L644,804 L644,81 Z" id="Path"></path>
        </g>
    </g>
</svg>