<?xml version="1.0" encoding="UTF-8"?>
<svg width="1024px" height="1024px" viewBox="0 0 1024 1024" version="1.1" xmlns="http://www.w3.org/2000/svg" xmlns:xlink="http://www.w3.org/1999/xlink">
    <!-- Generator: Sketch 55.2 (78181) - https://sketchapp.com -->
    <title>appicon</title>
    <desc>Created with Sketch.</desc>
    <g id="appicon" stroke="none" stroke-width="1" fill="none" fill-rule="evenodd">
        <g id="book">
            <rect id="Rectangle" fill="#FFFFFF" x="0" y="0" width="1024" height="1024"></rect>
            <path d="M267.777778,773.333333 C267.777778,744.614526 291.208209,721.333333 320.111111,721.333333 L791.111111,721.333333 C810.379712,721.333333 826,705.812538 826,686.666667 C826,667.520795 810.379712,652 791.111111,652 L320.111111,652 C252.671007,652 198,706.322784 198,773.333333 C198,792.479205 213.620288,808 232.888889,808 C252.15749,808 267.777778,792.479205 267.777778,773.333333 Z" id="Path" fill="#292F36" fill-rule="nonzero"></path>
            <path d="M320.111111,128 L791.111111,128 C810.379712,128 826,143.629332 826,162.909091 L826,861.090909 C826,880.370668 810.379712,896 791.111111,896 L320.111111,896 C252.671007,896 198,841.297337 198,773.818182 L198,250.181818 C198,182.702663 252.671007,128 320.111111,128 Z M756,198 L320.285714,198 C291.409112,198 268,221.430431 268,250.333333 L268,773.666667 C268,802.569569 291.409112,826 320.285714,826 L756,826 L756,198 Z" id="Path" fill="#292F36" fill-rule="nonzero"></path>
        </g>
    </g>
</svg>